<svg
  width="64"
  height="64"
  viewBox="0 0 64 64"
  xmlns="http://www.w3.org/2000/svg"
>
  <defs>
    <linearGradient id="bgGradient" x1="0" y1="0" x2="64" y2="64">
      <stop offset="0%" stop-color="#fff4ec" />
      <stop offset="60%" stop-color="#ffe1f0" />
      <stop offset="100%" stop-color="#ffd6e8" />
    </linearGradient>
    <linearGradient id="heartGradient" x1="24" y1="26" x2="40" y2="48">
      <stop offset="0%" stop-color="#ff6b9c" />
      <stop offset="100%" stop-color="#d94879" />
    </linearGradient>
    <linearGradient id="ringGradient" x1="18" y1="16" x2="44" y2="34">
      <stop offset="0%" stop-color="#f7d38b" />
      <stop offset="100%" stop-color="#d9a850" />
    </linearGradient>
  </defs>
  <rect
    width="64"
    height="64"
    rx="16"
    fill="url(#bgGradient)"
  />
  <g opacity="0.4">
    <circle
      cx="26"
      cy="26"
      r="11"
      fill="none"
      stroke="url(#ringGradient)"
      stroke-width="3"
    />
    <circle
      cx="38"
      cy="28"
      r="11"
      fill="none"
      stroke="url(#ringGradient)"
      stroke-width="3"
    />
  </g>
  <path
    d="M31.998 48.5c-.74 0-1.48-.26-2.06-.8l-9.9-9.25c-2.7-2.53-3.28-6.8-1.32-9.87 2.1-3.28 6.38-4.1 9.31-1.66l3.97 3.33 3.97-3.33c2.94-2.44 7.22-1.62 9.31 1.66 1.96 3.06 1.38 7.34-1.32 9.87l-9.9 9.25c-.58.54-1.3.8-2.04.8Z"
    fill="url(#heartGradient)"
    stroke="#fff1f8"
    stroke-width="1.4"
  />
  <path
    d="M19 21.5l2.7-.8 1-2.7 1 2.7 2.7.8-2.7.9-1 2.7-1-2.7-2.7-.9Z"
    fill="#ffd27d"
  />
  <path
    d="M39 15l1.8-.5.7-1.8.7 1.8 1.8.5-1.8.6-.7 1.8-.7-1.8L39 15Z"
    fill="#ffd27d"
    opacity="0.8"
  />
</svg>
